<svg width="135" height="67" viewBox="0 0 135 67" fill="none" xmlns="http://www.w3.org/2000/svg">
<g clip-path="url(#clip0_4853_1486)">
<path d="M26.2961 3.19981C22.5615 2.60095 18.7411 3.49105 15.6558 5.67882C12.5704 7.8666 10.4665 11.1774 9.79611 14.8998L4.19611 48.0998C3.89927 49.945 3.96913 51.8307 4.40167 53.6489C4.83421 55.4671 5.62095 57.1822 6.7169 58.6961C7.81285 60.21 9.1965 61.493 10.7887 62.4717C12.3809 63.4504 14.1505 64.1056 15.9961 64.3998C19.7334 65.0191 23.564 64.1371 26.6542 61.9459C29.7444 59.7546 31.8441 56.4315 32.4961 52.6998L37.9961 19.4998C38.5967 15.7881 37.703 11.9895 35.5104 8.93492C33.3179 5.88033 30.0049 3.81831 26.2961 3.19981ZM29.8961 51.4998C29.4375 54.5726 27.781 57.3389 25.2888 59.194C22.7966 61.0492 19.6713 61.8422 16.5961 61.3998C13.535 60.8255 10.8265 59.0609 9.0644 56.4927C7.30232 53.9246 6.63045 50.7625 7.19611 47.6998L9.49611 33.5998L32.1961 37.3998L29.8961 51.4998ZM32.9961 22.6998C32.2178 24.1992 30.9954 25.4215 29.4961 26.1998C27.3961 27.1998 25.0961 26.6998 20.4961 25.9998C18.8961 25.6998 17.5961 25.3998 16.6961 25.1998C16.3961 26.9998 16.0961 28.8998 15.6961 30.6998L12.0961 30.0998L15.1961 12.3998C15.373 11.7458 15.679 11.1337 16.0961 10.5998C18.2961 7.59981 22.9961 6.29981 26.8961 7.49981C28.6283 8.07745 30.1915 9.0731 31.4473 10.3987C32.7031 11.7243 33.6129 13.3389 34.0961 15.0998C34.7104 17.6808 34.317 20.3989 32.9961 22.6998Z" fill="white"/>
<path d="M24.8969 10.8995C23.8457 10.701 22.7603 10.7915 21.7565 11.1613C20.7527 11.5312 19.868 12.1665 19.1969 12.9995C18.8037 13.5244 18.5616 14.1469 18.4969 14.7996L17.2969 21.7995C17.9969 21.9995 18.9969 22.1995 20.2969 22.4995C25.2969 23.5996 25.9969 23.5995 26.5969 23.3995C27.5569 23.1121 28.428 22.5849 29.1278 21.8675C29.8276 21.1502 30.3332 20.2664 30.5969 19.2995C31.5969 15.6995 28.4969 11.3995 24.8969 10.8995Z" fill="white"/>
<path d="M28.2 51.9999C27.6289 54.2814 26.2864 56.2952 24.4 57.6999C24 57.9999 20 60.8999 15.3 59.2999C13.259 58.6163 11.5241 57.2355 10.4 55.3999C9.37612 53.777 8.7904 51.9165 8.7 49.9999C8.7 49.0999 8.4 43.6999 12.6 40.5999C14.5777 39.2862 16.9302 38.6541 19.3 38.7999L19.6 42.6999C18.3123 42.4627 16.9826 42.6377 15.8 43.1999C14.9404 43.6426 14.1873 44.267 13.5931 45.0299C12.9989 45.7927 12.5778 46.6757 12.359 47.6176C12.1402 48.5595 12.1289 49.5377 12.3259 50.4843C12.523 51.431 12.9236 52.3235 13.5 53.0999C14.3308 54.5539 15.6929 55.6292 17.3 56.0998C18.5548 56.344 19.855 56.1683 21 55.5998C22.0006 55.1274 22.8619 54.4039 23.5 53.4999C24.1438 52.6155 24.5563 51.5842 24.7 50.4999L28.2 51.9999Z" fill="#00FF08"/>
<path d="M51.8 21.9008H55.8C56.9021 21.9205 57.9719 21.5283 58.8 20.8008C59.186 20.4286 59.4848 19.9755 59.675 19.4741C59.8652 18.9727 59.942 18.4354 59.9 17.9008C59.9279 17.3525 59.8448 16.8042 59.6558 16.2887C59.4668 15.7732 59.1757 15.3012 58.8 14.9008C58.3929 14.541 57.9174 14.2669 57.4019 14.0951C56.8864 13.9233 56.3416 13.8572 55.8 13.9008H51.8L52.3 13.2008V31.0008H49.5V11.1008H56.3C57.5267 11.0775 58.7367 11.3886 59.8 12.0008C60.7583 12.5922 61.55 13.4182 62.1 14.4008C62.6261 15.457 62.9 16.6209 62.9 17.8008C62.9 18.9808 62.6261 20.1447 62.1 21.2008C61.5795 22.2049 60.7811 23.0381 59.8 23.6008C58.7417 24.2252 57.5282 24.5373 56.3 24.5008H51.8V21.9008Z" fill="white"/>
<path d="M64.7969 30.9996V11.0996H67.5969V30.9996H64.7969ZM74.0969 30.9996V21.8996C74.0969 20.8996 73.8969 20.1996 73.3969 19.8996C72.9504 19.5283 72.3753 19.3486 71.7969 19.3996C71.1736 19.388 70.5566 19.5251 69.9969 19.7996C69.397 20.0731 68.8273 20.4082 68.2969 20.7996C67.8188 21.1668 67.4405 21.6482 67.1969 22.1996L66.8969 19.3996C67.3874 18.7908 67.9595 18.2524 68.5969 17.7996C69.2098 17.3682 69.884 17.0311 70.5969 16.7996C71.3121 16.5952 72.053 16.4942 72.7969 16.4996C73.5939 16.4648 74.3863 16.637 75.0969 16.9996C75.3805 17.1407 75.6328 17.3374 75.8389 17.5778C76.0451 17.8183 76.2008 18.0978 76.2969 18.3996C76.5682 19.0007 76.7372 19.6428 76.7969 20.2996C76.8801 21.0298 76.9135 21.7649 76.8969 22.4996V30.9996H74.0969Z" fill="white"/>
<path d="M84.1007 31.4998C83.133 31.5252 82.1731 31.3196 81.3008 30.8998C80.5449 30.525 79.9181 29.933 79.5007 29.1998C79.0806 28.3991 78.8739 27.5036 78.9007 26.5998C78.8855 25.729 79.092 24.8688 79.5007 24.0998C79.9181 23.3665 80.5449 22.7746 81.3008 22.3998C82.1412 21.9906 83.0661 21.7851 84.0007 21.7998C85.1365 21.7471 86.259 22.0627 87.2007 22.6998C88.0172 23.3327 88.6123 24.2078 88.9007 25.1998H87.3008V21.4998C87.3001 20.8813 87.0885 20.2816 86.7007 19.7998C86.4344 19.5157 86.1069 19.2961 85.7431 19.1575C85.3792 19.0188 84.9886 18.9649 84.6007 18.9998C84.0298 19.0227 83.4614 19.0896 82.9007 19.1998C82.1978 19.3126 81.5206 19.5496 80.9007 19.8998L80.1007 17.5998C80.8655 17.213 81.6703 16.9112 82.5007 16.6998C83.2854 16.5017 84.0915 16.4009 84.9007 16.3998C85.9162 16.3319 86.9281 16.5762 87.8008 17.0998C88.5563 17.4881 89.1562 18.1233 89.5007 18.8998C89.8983 19.6729 90.1041 20.5304 90.1007 21.3998V30.9998H88.1007L87.4007 28.3998L88.9007 27.9998C88.6679 29.0703 88.0208 30.005 87.1007 30.5998C86.2145 31.1957 85.1687 31.5094 84.1007 31.4998ZM84.6007 28.8998C85.316 28.9311 86.0209 28.7197 86.6007 28.2998C86.851 28.0928 87.0525 27.8331 87.1909 27.5392C87.3292 27.2454 87.4009 26.9246 87.4009 26.5998C87.4009 26.275 87.3292 25.9542 87.1909 25.6603C87.0525 25.3665 86.851 25.1068 86.6007 24.8998C86.0072 24.5084 85.3118 24.2997 84.6007 24.2997C83.8897 24.2997 83.1943 24.5084 82.6007 24.8998C82.3505 25.1068 82.149 25.3665 82.0106 25.6603C81.8723 25.9542 81.8006 26.275 81.8006 26.5998C81.8006 26.9246 81.8723 27.2454 82.0106 27.5392C82.149 27.8331 82.3505 28.0928 82.6007 28.2998C83.1735 28.7339 83.8836 28.947 84.6007 28.8998Z" fill="white"/>
<path d="M95.2 16.8006L95.9 20.7006V31.0006H93V16.8006H95.2ZM95.4 21.8006L94.7 21.5006V19.4006L95 19.1006C95.2378 18.6872 95.5419 18.3156 95.9 18.0006C96.3244 17.6118 96.7945 17.276 97.3 17.0006C97.8202 16.7164 98.4076 16.5782 99 16.6006C99.2707 16.5778 99.5432 16.6119 99.8 16.7006C100 16.8006 100.2 16.8006 100.4 16.9006V19.5006H99.5C98.5284 19.427 97.5561 19.6353 96.7 20.1006C96.0658 20.4808 95.6008 21.0889 95.4 21.8006Z" fill="white"/>
<path d="M102.102 31.0005V16.8005H104.302L104.902 19.3005L104.202 19.4005C105.07 18.2334 106.248 17.3327 107.602 16.8005C108.248 16.5959 108.923 16.4947 109.602 16.5005C110.399 16.4657 111.191 16.6379 111.902 17.0005C112.185 17.1416 112.437 17.3382 112.644 17.5787C112.85 17.8192 113.005 18.0987 113.102 18.4005C113.373 19.0015 113.542 19.6437 113.602 20.3005C113.685 21.0307 113.718 21.7657 113.702 22.5005V31.0005H110.902V21.9005C110.902 20.9005 110.702 20.2005 110.202 19.9005C109.755 19.5292 109.18 19.3495 108.602 19.4005C107.708 19.4202 106.84 19.6981 106.102 20.2005C105.331 20.6629 104.734 21.3656 104.402 22.2005V20.6005H104.902V31.0005H102.102ZM119.802 31.0005V21.9005C119.802 20.9005 119.602 20.2005 119.102 19.9005C118.626 19.5863 118.071 19.413 117.502 19.4005C116.608 19.4202 115.74 19.6981 115.002 20.2005C114.231 20.6629 113.634 21.3656 113.302 22.2005L113.002 19.4005C113.87 18.2334 115.048 17.3327 116.402 16.8005C117.048 16.5959 117.723 16.4947 118.402 16.5005C119.199 16.4657 119.991 16.6379 120.702 17.0005C120.985 17.1416 121.237 17.3382 121.444 17.5787C121.65 17.8192 121.805 18.0987 121.902 18.4005C122.173 19.0015 122.342 19.6437 122.402 20.3005C122.485 21.0307 122.518 21.7657 122.502 22.5005V31.0005H119.802Z" fill="white"/>
<path d="M129.702 31.4998C128.735 31.5252 127.775 31.3196 126.902 30.8998C126.146 30.525 125.52 29.933 125.102 29.1998C124.682 28.3991 124.476 27.5036 124.502 26.5998C124.487 25.729 124.694 24.8688 125.102 24.0998C125.52 23.3665 126.146 22.7746 126.902 22.3998C127.743 21.9906 128.668 21.7851 129.602 21.7998C130.738 21.7471 131.861 22.0627 132.802 22.6998C133.619 23.3327 134.214 24.2078 134.502 25.1998H133.002V21.4998C133.002 20.8813 132.79 20.2816 132.402 19.7998C132.136 19.5157 131.808 19.2961 131.445 19.1575C131.081 19.0188 130.69 18.9649 130.302 18.9998C129.731 19.0227 129.163 19.0896 128.602 19.1998C127.899 19.3126 127.222 19.5496 126.602 19.8998L125.802 17.5998C126.567 17.213 127.372 16.9112 128.202 16.6998C128.987 16.5017 129.793 16.4009 130.602 16.3998C131.618 16.3319 132.63 16.5762 133.502 17.0998C134.258 17.4881 134.858 18.1233 135.202 18.8998C135.6 19.6729 135.806 20.5304 135.802 21.3998V30.9998H133.802L133.102 28.3998L134.602 27.9998C134.369 29.0703 133.722 30.005 132.802 30.5998C131.885 31.2098 130.803 31.5239 129.702 31.4998ZM130.202 28.8998C130.918 28.9311 131.622 28.7197 132.202 28.2998C132.453 28.0928 132.654 27.8331 132.792 27.5392C132.931 27.2454 133.002 26.9246 133.002 26.5998C133.002 26.275 132.931 25.9542 132.792 25.6603C132.654 25.3665 132.453 25.1068 132.202 24.8998C131.609 24.5084 130.913 24.2997 130.202 24.2997C129.491 24.2997 128.796 24.5084 128.202 24.8998C127.952 25.1068 127.751 25.3665 127.612 25.6603C127.474 25.9542 127.402 26.275 127.402 26.5998C127.402 26.9246 127.474 27.2454 127.612 27.5392C127.751 27.8331 127.952 28.0928 128.202 28.2998C128.782 28.7197 129.487 28.9311 130.202 28.8998Z" fill="white"/>
<path d="M57.4976 59.1008C55.7639 59.1128 54.0632 58.6269 52.5976 57.7008C51.1773 56.78 50.0633 55.4571 49.3976 53.9008C48.5792 52.22 48.1681 50.3701 48.1976 48.5008C48.1693 47.0696 48.4067 45.6455 48.8976 44.3008C49.3263 43.095 49.97 41.977 50.7976 41.0008C51.6029 40.0761 52.5901 39.3272 53.6976 38.8008C55.1043 38.1848 56.639 37.9176 58.1711 38.0221C59.7032 38.1266 61.1875 38.5995 62.4976 39.4008C63.8485 40.4257 64.9721 41.7196 65.7976 43.2008L63.1976 44.1008C62.5731 43.0218 61.6766 42.1253 60.5976 41.5008C59.6391 41.0117 58.5732 40.771 57.4976 40.8008C56.3196 40.7775 55.1644 41.1275 54.1976 41.8008C53.2013 42.4768 52.4066 43.4098 51.8976 44.5008C51.2377 45.7269 50.9264 47.1103 50.9976 48.5008C50.9634 49.856 51.273 51.1977 51.8976 52.4008C52.3832 53.5067 53.183 54.4455 54.1976 55.1008C55.1644 55.7741 56.3196 56.1242 57.4976 56.1008C58.5721 56.1195 59.6353 55.8794 60.5976 55.4008C61.6766 54.7763 62.5731 53.8799 63.1976 52.8008L65.7976 53.7008C65.0623 55.2432 63.9217 56.5567 62.4976 57.5008C61.0778 58.6186 59.3025 59.1867 57.4976 59.1008Z" fill="white"/>
<path d="M69.9967 58.9008C69.78 58.9195 69.5617 58.8937 69.3554 58.8249C69.149 58.7561 68.9589 58.6458 68.7967 58.5008C68.4528 58.1971 68.1797 57.8216 67.9967 57.4008C67.7836 56.8252 67.6818 56.2144 67.6967 55.6008V38.3008H70.2967V54.6008C70.2422 54.8038 70.2386 55.0171 70.2862 55.2219C70.3337 55.4266 70.431 55.6165 70.5695 55.7747C70.7079 55.9329 70.8831 56.0545 71.0798 56.1288C71.2764 56.2031 71.4883 56.2279 71.6967 56.2008V58.6008C71.4481 58.7257 71.1749 58.794 70.8967 58.8008C70.6043 58.8833 70.3002 58.9171 69.9967 58.9008Z" fill="white"/>
<path d="M79.6 59.0997C78.3733 59.1231 77.1633 58.8119 76.1 58.1997C75.0558 57.5507 74.2221 56.6128 73.7 55.4997C73.1096 54.252 72.8349 52.8784 72.9 51.4997C72.8841 50.1251 73.1566 48.7624 73.7 47.4997C74.2469 46.4031 75.0751 45.4714 76.1 44.7997C77.1545 44.1553 78.3643 43.8097 79.6 43.7997C80.8422 43.7616 82.0654 44.1111 83.1 44.7997C84.1442 45.4487 84.9779 46.3866 85.5 47.4997C86.0904 48.7473 86.3651 50.1209 86.3 51.4997C86.3159 52.8743 86.0434 54.237 85.5 55.4997C84.9531 56.5963 84.1249 57.528 83.1 58.1997C82.0188 58.7666 80.8206 59.0747 79.6 59.0997ZM79.6 56.1997C80.1519 56.2294 80.703 56.127 81.2074 55.9009C81.7118 55.6747 82.155 55.3315 82.5 54.8997C83.2469 53.9267 83.6354 52.7258 83.6 51.4997C83.6348 50.2429 83.2475 49.0106 82.5 47.9997C82.155 47.5679 81.7118 47.2246 81.2074 46.9985C80.703 46.7724 80.1519 46.67 79.6 46.6997C79.0494 46.68 78.5016 46.787 77.9988 47.0124C77.496 47.2377 77.0517 47.5755 76.7 47.9997C75.9531 48.9727 75.5646 50.1736 75.6 51.3997C75.5479 52.6281 75.9382 53.8345 76.7 54.7997C77.0466 55.2365 77.4875 55.5893 77.9897 55.8317C78.4919 56.0742 79.0424 56.1999 79.6 56.1997Z" fill="white"/>
<path d="M92.2984 59.0999C91.2554 59.1176 90.2309 58.8222 89.3575 58.2517C88.484 57.6813 87.8016 56.8621 87.3984 55.8999L89.3984 54.3999C89.791 54.9938 90.2619 55.532 90.7984 55.9999C91.2979 56.3424 91.8931 56.5174 92.4984 56.4999C92.738 56.5114 92.9772 56.4728 93.201 56.3867C93.4249 56.3006 93.6283 56.1689 93.7984 55.9999C93.9584 55.844 94.0852 55.6573 94.1711 55.4511C94.257 55.2448 94.3004 55.0233 94.2984 54.7999C94.2917 54.5218 94.2234 54.2486 94.0984 53.9999C93.878 53.7185 93.6066 53.4811 93.2984 53.2999C92.7851 53.0503 92.2494 52.8494 91.6984 52.6999C90.6076 52.407 89.5872 51.8968 88.6984 51.1999C88.3316 50.8179 88.0521 50.3607 87.8795 49.8599C87.7068 49.3592 87.645 48.8269 87.6984 48.2999C87.7098 47.5398 87.8801 46.7904 88.1984 46.0999C88.5711 45.4271 89.1256 44.8726 89.7984 44.4999C90.5314 44.0915 91.3595 43.8845 92.1984 43.8999C93.1914 43.8753 94.1683 44.1544 94.9984 44.6999C95.7248 45.1934 96.3665 45.8013 96.8984 46.4999L94.7984 48.1999C94.4838 47.7847 94.1136 47.4146 93.6984 47.0999C93.1759 46.7268 92.5386 46.5497 91.8984 46.5999C91.4625 46.5786 91.0344 46.7213 90.6984 46.9999C90.5076 47.1353 90.353 47.3156 90.2484 47.5249C90.1437 47.7342 90.0922 47.966 90.0984 48.1999C90.0965 48.4233 90.1398 48.6448 90.2258 48.8511C90.3117 49.0573 90.4385 49.244 90.5984 49.3999C91.157 49.8177 91.8093 50.0924 92.4984 50.1999C93.7395 50.4655 94.9028 51.013 95.8984 51.7999C96.2484 52.1523 96.5188 52.5757 96.6913 53.0415C96.8638 53.5072 96.9345 54.0046 96.8984 54.4999C96.9426 55.3872 96.6969 56.2646 96.1984 56.9999C95.7876 57.6778 95.1999 58.2309 94.4984 58.5999C93.8246 58.9645 93.0637 59.1374 92.2984 59.0999Z" fill="white"/>
<path d="M101.903 44.0996H99.2031V58.7996H101.903V44.0996Z" fill="white"/>
<path d="M112.297 43.7991C113.061 43.775 113.818 43.9472 114.497 44.2991C114.999 44.6678 115.409 45.1468 115.697 45.6991C115.968 46.3351 116.137 47.0102 116.197 47.6991C116.282 48.4626 116.316 49.231 116.297 49.9991V58.7991H113.597V49.3991C113.675 48.6479 113.46 47.8955 112.997 47.2991C112.795 47.1164 112.558 46.9775 112.299 46.8915C112.041 46.8054 111.768 46.7739 111.497 46.7991C110.905 46.7767 110.317 46.9149 109.797 47.1991C109.205 47.4718 108.664 47.8438 108.197 48.2991C107.722 48.7101 107.346 49.2228 107.097 49.7991V47.9991H107.497V58.7991H104.797V44.0991H106.797L107.397 46.6991L106.697 46.7991C107.153 46.1934 107.691 45.6547 108.297 45.1991C108.874 44.7689 109.515 44.4315 110.197 44.1991C110.875 43.9699 111.582 43.8353 112.297 43.7991Z" fill="white"/>
<path d="M124.302 57.9005C123.17 57.9245 122.056 57.6112 121.102 57.0005C120.172 56.3641 119.415 55.5045 118.902 54.5005C118.369 53.3404 118.096 52.0775 118.102 50.8005C118.085 49.5224 118.358 48.2571 118.902 47.1005C119.352 46.0551 120.123 45.1797 121.102 44.6005C122.056 43.9898 123.17 43.6765 124.302 43.7005C125.403 43.6764 126.485 43.9905 127.402 44.6005C128.299 45.2206 128.994 46.0897 129.402 47.1005C129.902 48.2682 130.141 49.5309 130.102 50.8005C130.141 52.0701 129.902 53.3328 129.402 54.5005C128.961 55.4912 128.272 56.352 127.402 57.0005C126.492 57.6239 125.405 57.9393 124.302 57.9005ZM124.702 64.7005C123.991 64.7136 123.282 64.6123 122.602 64.4005C121.918 64.1936 121.299 63.8149 120.802 63.3005C120.209 62.6719 119.705 61.9654 119.302 61.2005L119.102 60.8005L121.202 59.5005C121.574 60.2253 122.084 60.8706 122.702 61.4005C123.282 61.8204 123.987 62.0319 124.702 62.0005C125.19 62.0198 125.676 61.9313 126.125 61.7411C126.575 61.551 126.977 61.2639 127.302 60.9005C128.015 59.8774 128.367 58.6459 128.302 57.4005V54.3005H128.602V47.0005H128.302L128.902 44.1005H130.902V56.9005C130.936 58.3738 130.664 59.838 130.102 61.2005C129.651 62.2711 128.884 63.1783 127.902 63.8005C126.943 64.3985 125.833 64.7107 124.702 64.7005ZM124.702 55.3005C125.213 55.3148 125.721 55.2144 126.188 55.0067C126.656 54.7991 127.07 54.4894 127.402 54.1005C128.116 53.1921 128.472 52.0536 128.402 50.9005C128.472 49.7474 128.116 48.609 127.402 47.7005C127.061 47.3228 126.645 47.0209 126.18 46.8142C125.715 46.6075 125.211 46.5008 124.702 46.5008C124.193 46.5008 123.69 46.6075 123.225 46.8142C122.76 47.0209 122.343 47.3228 122.002 47.7005C121.289 48.609 120.933 49.7474 121.002 50.9005C120.933 52.0536 121.289 53.1921 122.002 54.1005C122.321 54.5054 122.733 54.8264 123.203 55.0355C123.674 55.2447 124.189 55.3356 124.702 55.3005Z" fill="white"/>
<path d="M95.6016 38.4996C96.3942 38.9066 97.1332 39.4105 97.8016 39.9996C98.8268 40.8888 99.7044 41.9352 100.402 43.0996C101.134 41.5893 102.004 40.1498 103.002 38.7996C104.16 37.2105 105.541 35.7961 107.102 34.5996C105.717 35.1958 104.435 36.0057 103.302 36.9996C102.27 37.9209 101.392 39.0012 100.702 40.1996C100.503 39.7329 100.194 39.3212 99.8016 38.9996C99.1874 38.5983 98.4887 38.3443 97.7601 38.2576C97.0316 38.1709 96.2928 38.2537 95.6016 38.4996Z" fill="#00FF08"/>
</g>
<defs>
<clipPath id="clip0_4853_1486">
<rect width="135" height="66.9" fill="white"/>
</clipPath>
</defs>
</svg>
